<?xml version="1.0" encoding="UTF-8"?>
<svg width="900" height="700" viewBox="0 0 900 700" xmlns="http://www.w3.org/2000/svg">
  <defs>
    <style>
      .title { font-family: -apple-system, BlinkMacSystemFont, 'Segoe UI', Roboto, 'Helvetica Neue', Arial, 'Noto Sans', sans-serif, 'Apple Color Emoji', 'Segoe UI Emoji', 'Segoe UI Symbol', 'Noto Color Emoji'; font-size: 20px; font-weight: bold; fill: #2c3e50; }
      .pattern-title { font-family: -apple-system, BlinkMacSystemFont, 'Segoe UI', Roboto, 'Helvetica Neue', Arial, 'Noto Sans', sans-serif, 'Apple Color Emoji', 'Segoe UI Emoji', 'Segoe UI Symbol', 'Noto Color Emoji'; font-size: 14px; font-weight: bold; fill: #fff; }
      .component-title { font-family: -apple-system, BlinkMacSystemFont, 'Segoe UI', Roboto, 'Helvetica Neue', Arial, 'Noto Sans', sans-serif, 'Apple Color Emoji', 'Segoe UI Emoji', 'Segoe UI Symbol', 'Noto Color Emoji'; font-size: 12px; font-weight: bold; fill: #2c3e50; }
      .text-content { font-family: -apple-system, BlinkMacSystemFont, 'Segoe UI', Roboto, 'Helvetica Neue', Arial, 'Noto Sans', sans-serif, 'Apple Color Emoji', 'Segoe UI Emoji', 'Segoe UI Symbol', 'Noto Color Emoji'; font-size: 11px; fill: #2c3e50; }
      .small-text { font-family: -apple-system, BlinkMacSystemFont, 'Segoe UI', Roboto, 'Helvetica Neue', Arial, 'Noto Sans', sans-serif, 'Apple Color Emoji', 'Segoe UI Emoji', 'Segoe UI Symbol', 'Noto Color Emoji'; font-size: 10px; fill: #7f8c8d; }
      .monolithic-box { fill: #e74c3c; stroke: #c0392b; stroke-width: 2; }
      .microservices-box { fill: #3498db; stroke: #2980b9; stroke-width: 2; }
      .serverless-box { fill: #2ecc71; stroke: #27ae60; stroke-width: 2; }
      .container-box { fill: #f39c12; stroke: #e67e22; stroke-width: 2; }
      .hybrid-box { fill: #9b59b6; stroke: #8e44ad; stroke-width: 2; }
      .component { fill: #fff; stroke: #95a5a6; stroke-width: 1; }
      .flow-arrow { stroke: #34495e; stroke-width: 2; fill: none; marker-end: url(#arrowhead); }
      .api-line { stroke: #3498db; stroke-width: 2; stroke-dasharray: 5,3; fill: none; }
    </style>
    <marker id="arrowhead" markerWidth="10" markerHeight="10" refX="9" refY="3" orient="auto">
      <polygon points="0 0, 10 3, 0 6" fill="#34495e"/>
    </marker>
  </defs>

  <!-- Title -->
  <text x="450" y="30" class="title" text-anchor="middle">クラウドアーキテクチャパターン</text>

  <!-- Monolithic Architecture -->
  <g id="monolithic">
    <rect x="50" y="60" width="200" height="180" class="monolithic-box" rx="10"/>
    <text x="150" y="85" class="pattern-title" text-anchor="middle">モノリシック</text>
    
    <rect x="70" y="100" width="160" height="120" class="component" rx="5"/>
    <text x="150" y="120" class="component-title" text-anchor="middle">単一アプリケーション</text>
    <text x="80" y="140" class="text-content">• UI層</text>
    <text x="80" y="155" class="text-content">• ビジネスロジック</text>
    <text x="80" y="170" class="text-content">• データアクセス層</text>
    <text x="80" y="185" class="text-content">• 単一データベース</text>
    <text x="80" y="205" class="small-text">メリット: シンプル、開発容易</text>
    <text x="80" y="220" class="small-text">デメリット: スケーラビリティ</text>
  </g>

  <!-- Microservices Architecture -->
  <g id="microservices">
    <rect x="280" y="60" width="340" height="180" class="microservices-box" rx="10"/>
    <text x="450" y="85" class="pattern-title" text-anchor="middle">マイクロサービス</text>
    
    <!-- Service A -->
    <rect x="300" y="100" width="90" height="60" class="component" rx="3"/>
    <text x="345" y="120" class="text-content" text-anchor="middle">Service A</text>
    <rect x="310" y="130" width="70" height="20" class="component" rx="2"/>
    <text x="345" y="145" class="small-text" text-anchor="middle">DB-A</text>
    
    <!-- Service B -->
    <rect x="405" y="100" width="90" height="60" class="component" rx="3"/>
    <text x="450" y="120" class="text-content" text-anchor="middle">Service B</text>
    <rect x="415" y="130" width="70" height="20" class="component" rx="2"/>
    <text x="450" y="145" class="small-text" text-anchor="middle">DB-B</text>
    
    <!-- Service C -->
    <rect x="510" y="100" width="90" height="60" class="component" rx="3"/>
    <text x="555" y="120" class="text-content" text-anchor="middle">Service C</text>
    <rect x="520" y="130" width="70" height="20" class="component" rx="2"/>
    <text x="555" y="145" class="small-text" text-anchor="middle">DB-C</text>
    
    <!-- API Gateway -->
    <rect x="380" y="170" width="140" height="30" class="component" rx="3"/>
    <text x="450" y="190" class="text-content" text-anchor="middle">API Gateway</text>
    
    <!-- Connections -->
    <line x1="345" y1="160" x2="450" y2="170" class="api-line"/>
    <line x1="450" y1="160" x2="450" y2="170" class="api-line"/>
    <line x1="555" y1="160" x2="450" y2="170" class="api-line"/>
    
    <text x="300" y="220" class="small-text">メリット: 独立デプロイ、技術選択の自由</text>
    <text x="300" y="235" class="small-text">デメリット: 複雑性、ネットワーク遅延</text>
  </g>

  <!-- Serverless Architecture -->
  <g id="serverless">
    <rect x="650" y="60" width="200" height="180" class="serverless-box" rx="10"/>
    <text x="750" y="85" class="pattern-title" text-anchor="middle">サーバーレス</text>
    
    <!-- Functions -->
    <rect x="670" y="100" width="70" height="30" class="component" rx="3"/>
    <text x="705" y="120" class="text-content" text-anchor="middle">Function</text>
    
    <rect x="760" y="100" width="70" height="30" class="component" rx="3"/>
    <text x="795" y="120" class="text-content" text-anchor="middle">Function</text>
    
    <rect x="670" y="140" width="70" height="30" class="component" rx="3"/>
    <text x="705" y="160" class="text-content" text-anchor="middle">Function</text>
    
    <rect x="760" y="140" width="70" height="30" class="component" rx="3"/>
    <text x="795" y="160" class="text-content" text-anchor="middle">Function</text>
    
    <!-- Managed Services -->
    <rect x="670" y="180" width="160" height="25" class="component" rx="3"/>
    <text x="750" y="197" class="text-content" text-anchor="middle">Managed Services</text>
    
    <text x="670" y="220" class="small-text">メリット: 自動スケール、使用分課金</text>
    <text x="670" y="235" class="small-text">デメリット: ベンダーロックイン</text>
  </g>

  <!-- Container Architecture -->
  <g id="container">
    <rect x="50" y="270" width="390" height="180" class="container-box" rx="10"/>
    <text x="245" y="295" class="pattern-title" text-anchor="middle">コンテナオーケストレーション</text>
    
    <!-- Kubernetes Cluster -->
    <rect x="70" y="310" width="350" height="120" class="component" rx="5"/>
    <text x="245" y="330" class="component-title" text-anchor="middle">Kubernetes Cluster</text>
    
    <!-- Pods -->
    <rect x="85" y="345" width="70" height="35" class="component" rx="3"/>
    <text x="120" y="365" class="text-content" text-anchor="middle">Pod</text>
    
    <rect x="165" y="345" width="70" height="35" class="component" rx="3"/>
    <text x="200" y="365" class="text-content" text-anchor="middle">Pod</text>
    
    <rect x="245" y="345" width="70" height="35" class="component" rx="3"/>
    <text x="280" y="365" class="text-content" text-anchor="middle">Pod</text>
    
    <rect x="325" y="345" width="70" height="35" class="component" rx="3"/>
    <text x="360" y="365" class="text-content" text-anchor="middle">Pod</text>
    
    <!-- Services -->
    <rect x="85" y="390" width="150" height="25" class="component" rx="3"/>
    <text x="160" y="407" class="text-content" text-anchor="middle">Service / Ingress</text>
    
    <rect x="245" y="390" width="150" height="25" class="component" rx="3"/>
    <text x="320" y="407" class="text-content" text-anchor="middle">ConfigMap / Secret</text>
    
    <text x="70" y="440" class="small-text">メリット: ポータビリティ、リソース効率、自動復旧</text>
  </g>

  <!-- Hybrid/Multi-Cloud -->
  <g id="hybrid">
    <rect x="470" y="270" width="380" height="180" class="hybrid-box" rx="10"/>
    <text x="660" y="295" class="pattern-title" text-anchor="middle">ハイブリッド/マルチクラウド</text>
    
    <!-- On-Premises -->
    <rect x="490" y="310" width="160" height="80" fill="#95a5a6" stroke="#7f8c8d" stroke-width="2" rx="5"/>
    <text x="570" y="330" class="pattern-title" text-anchor="middle">オンプレミス</text>
    <rect x="505" y="340" width="130" height="20" class="component" rx="3"/>
    <text x="570" y="355" class="small-text" text-anchor="middle">レガシーシステム</text>
    <rect x="505" y="365" width="130" height="20" class="component" rx="3"/>
    <text x="570" y="380" class="small-text" text-anchor="middle">機密データ</text>
    
    <!-- Public Cloud -->
    <rect x="670" y="310" width="160" height="80" fill="#3498db" opacity="0.7" stroke="#2980b9" stroke-width="2" rx="5"/>
    <text x="750" y="330" class="pattern-title" text-anchor="middle">パブリッククラウド</text>
    <rect x="685" y="340" width="130" height="20" class="component" rx="3"/>
    <text x="750" y="355" class="small-text" text-anchor="middle">スケーラブルアプリ</text>
    <rect x="685" y="365" width="130" height="20" class="component" rx="3"/>
    <text x="750" y="380" class="small-text" text-anchor="middle">マネージドサービス</text>
    
    <!-- Connection -->
    <path d="M 650 350 L 670 350" class="flow-arrow"/>
    <text x="660" y="345" class="small-text" text-anchor="middle">VPN/専用線</text>
    
    <text x="490" y="410" class="small-text">メリット: 柔軟性、ベストオブブリード</text>
    <text x="490" y="425" class="small-text">デメリット: 管理複雑性、データ転送コスト</text>
    <text x="490" y="440" class="small-text">ユースケース: 段階的移行、コンプライアンス対応</text>
  </g>

  <!-- Comparison Table -->
  <g id="comparison">
    <rect x="50" y="470" width="800" height="200" fill="#f8f9fa" stroke="#dee2e6" stroke-width="1" rx="5"/>
    <text x="450" y="495" class="component-title" text-anchor="middle">アーキテクチャパターン比較</text>
    
    <text x="70" y="520" class="text-content" font-weight="bold">パターン</text>
    <text x="200" y="520" class="text-content" font-weight="bold">スケーラビリティ</text>
    <text x="330" y="520" class="text-content" font-weight="bold">開発速度</text>
    <text x="450" y="520" class="text-content" font-weight="bold">運用複雑性</text>
    <text x="570" y="520" class="text-content" font-weight="bold">コスト</text>
    <text x="680" y="520" class="text-content" font-weight="bold">適用シーン</text>
    
    <line x1="60" y1="530" x2="840" y2="530" stroke="#95a5a6" stroke-width="1"/>
    
    <!-- Monolithic -->
    <text x="70" y="550" class="small-text">モノリシック</text>
    <text x="200" y="550" class="small-text">低</text>
    <text x="330" y="550" class="small-text">高速</text>
    <text x="450" y="550" class="small-text">シンプル</text>
    <text x="570" y="550" class="small-text">低</text>
    <text x="680" y="550" class="small-text">小規模・MVP</text>
    
    <!-- Microservices -->
    <text x="70" y="575" class="small-text">マイクロサービス</text>
    <text x="200" y="575" class="small-text">非常に高</text>
    <text x="330" y="575" class="small-text">中速</text>
    <text x="450" y="575" class="small-text">複雑</text>
    <text x="570" y="575" class="small-text">中〜高</text>
    <text x="680" y="575" class="small-text">大規模・複雑</text>
    
    <!-- Serverless -->
    <text x="70" y="600" class="small-text">サーバーレス</text>
    <text x="200" y="600" class="small-text">自動</text>
    <text x="330" y="600" class="small-text">高速</text>
    <text x="450" y="600" class="small-text">中程度</text>
    <text x="570" y="600" class="small-text">使用分</text>
    <text x="680" y="600" class="small-text">イベント駆動</text>
    
    <!-- Container -->
    <text x="70" y="625" class="small-text">コンテナ</text>
    <text x="200" y="625" class="small-text">高</text>
    <text x="330" y="625" class="small-text">中速</text>
    <text x="450" y="625" class="small-text">中〜複雑</text>
    <text x="570" y="625" class="small-text">中</text>
    <text x="680" y="625" class="small-text">ポータブル</text>
    
    <!-- Hybrid -->
    <text x="70" y="650" class="small-text">ハイブリッド</text>
    <text x="200" y="650" class="small-text">柔軟</text>
    <text x="330" y="650" class="small-text">低速</text>
    <text x="450" y="650" class="small-text">非常に複雑</text>
    <text x="570" y="650" class="small-text">高</text>
    <text x="680" y="650" class="small-text">エンタープライズ</text>
  </g>
</svg>